<?xml version="1.0" encoding="UTF-8" standalone="no"?>
<!DOCTYPE svg PUBLIC "-//W3C//DTD SVG 1.1//EN" "http://www.w3.org/Graphics/SVG/1.1/DTD/svg11.dtd">
<svg width="100%" height="100%" viewBox="0 0 4760 1142" version="1.1" xmlns="http://www.w3.org/2000/svg" xmlns:xlink="http://www.w3.org/1999/xlink" xml:space="preserve" xmlns:serif="http://www.serif.com/" style="fillRule:evenodd;clipRule:evenodd;strokeLinejoin:round;strokeMiterlimit:2;">
    <g transform="matrix(1,0,0,1,-47059.6,-13250.2)">
        <g id="Plan-de-travail1" serif:id="Plan de travail1" transform="matrix(1.82888,0,0,0.43884,47282.7,13250.2)">
            <rect x="-122" y="0" width="2602.32" height="2602.32" style="fill:none;"/>
            <g transform="matrix(1.84669,0,0,2.86134,-816.276,-2414.98)">
                <g transform="matrix(1,0,0,1,132.355,0)">
                    <g transform="matrix(0.280412,0,0,0.754225,-3346.55,319.792)">
                        <path d="M13884.1,1350.66C13861.8,1582.58 13684.1,1769.4 13456.5,1805.75L13375.5,1603.02C13525.2,1603.02 13649.6,1493.75 13673.3,1350.66L13884.1,1350.66ZM13073.6,1301.16L12871.3,1217.16C12911.5,975.034 13122,790.157 13375.5,790.157C13640.8,790.157 13859.2,992.821 13884.1,1251.66L13673.3,1251.66C13649.6,1108.56 13525.2,999.291 13375.5,999.291C13208.9,999.291 13073.6,1134.55 13073.6,1301.16Z" style="fill:rgb(31,102,255);"/>
                    </g>
                    <g transform="matrix(0.319437,0,0,0.859288,-2912.42,124.568)">
                        <path d="M10453.5,1812.16C10453.5,1812.16 10453.5,1649.14 10453.5,1507.25C10453.5,1452.59 10431.7,1400.17 10393.1,1361.52C10354.4,1322.87 10302,1301.16 10247.3,1301.16C10105.5,1301.16 9942.46,1301.16 9942.46,1301.16C9942.46,1301.16 9942.46,1313.73 9942.46,1332.31L10096.3,1486.17L10185.5,1486.17C10207.5,1486.17 10228.6,1494.9 10244.2,1510.45C10259.7,1526.01 10268.5,1547.1 10268.5,1569.1L10268.5,1658.31L10422.3,1812.16C10440.9,1812.16 10453.5,1812.16 10453.5,1812.16Z" style="fill:rgb(0,207,217);"/>
                    </g>
                </g>
                <g transform="matrix(0.386321,0,0,0.987635,-4204.53,-0.907418)">
                    <text x="12804.8px" y="1600.66px" style="font-family:'Satoshi-Black', 'Satoshi';font-weight:900;font-size:770.449px;fill:rgb(31,102,255);">C<tspan x="13342.2px 13722.8px 14008.6px 14233px 14603.8px 14967.6px " y="1600.66px 1600.66px 1600.66px 1600.66px 1600.66px 1600.66px ">artevo</tspan></text>
                </g>
            </g>
        </g>
    </g>
</svg>
