<svg width="20" height="20" viewBox="0 0 20 20" fill="none" xmlns="http://www.w3.org/2000/svg">
<path fill-rule="evenodd" clip-rule="evenodd" d="M0 10C0 15.5137 4.48624 20 9.99981 20C15.5138 20 20 15.5136 20 10C20 4.48632 15.5138 0 9.99981 0C4.48624 0 0 4.48632 0 10ZM1.00681 9.6459C1.19331 4.84643 5.15553 0.999963 9.99981 0.999963C10.8734 0.999963 11.7183 1.12502 12.5175 1.35817C12.2217 1.4912 11.9179 1.61175 11.6139 1.7324L11.572 1.74904C10.3909 2.21682 9.1705 2.70018 8.31901 3.8211C7.93037 4.33972 7.89034 4.88661 8.21844 5.25187C8.5773 5.64296 9.13099 5.54411 9.53512 5.47196L9.53686 5.47165C9.56666 5.46661 9.59854 5.45996 9.63053 5.4533C9.71603 5.43548 9.80226 5.41751 9.85133 5.42962C10.7105 5.49104 12.3791 5.90909 12.9904 6.19129C12.8969 6.26437 12.792 6.32147 12.6799 6.36028C12.4611 6.43646 12.1232 6.48625 11.7501 6.27922C11.4807 6.12987 10.8632 5.98051 9.57889 5.75385C9.29381 5.70494 8.24696 5.79775 7.3661 6.56042C6.80271 7.04865 6.1435 7.97743 6.20405 9.62773C6.26159 11.164 7.27817 12.1668 8.79384 12.1834L9.08579 12.1844C10.1562 12.1844 10.578 12.2509 10.7703 12.9462C10.9101 13.4492 10.95 13.9677 10.992 14.5166L10.9946 14.5494C11.0353 15.0627 11.0772 15.5923 11.2093 16.1221C11.4866 17.2432 12.0705 17.5224 12.508 17.5595C12.5745 17.5654 12.6369 17.5683 12.6994 17.5683C13.637 17.5683 14.258 16.9432 14.7716 16.3491C14.8801 16.2217 14.9989 16.1 15.1181 15.9778C15.1276 15.9681 15.137 15.9584 15.1465 15.9487C15.4533 15.6354 15.7697 15.3112 15.9982 14.8931C16.2605 14.4155 16.3527 13.922 16.4421 13.4439L16.4435 13.4362C16.5255 12.9988 16.6036 12.5846 16.8088 12.2311L16.9083 12.0592C18.0373 10.1236 18.2833 9.4371 18.008 8.99866C17.881 8.79839 17.6505 8.70082 17.4123 8.71158C16.6428 8.775 16.1856 8.60125 15.9377 8.44789C15.8205 8.37484 15.7404 8.29954 15.6857 8.23411C15.8638 8.26315 16.1037 8.32678 16.2695 8.37078L16.2735 8.37184C16.8672 8.53095 17.4825 8.69407 17.9297 8.39323C18.0665 8.30141 18.2344 8.13254 18.3047 7.83471C18.3791 7.77272 18.5234 7.68368 18.6778 7.60906C18.8878 8.37065 19.0001 9.17239 19.0001 9.99988C19.0001 14.9628 14.9631 18.9998 9.99981 18.9998C7.57787 18.9998 5.3764 18.0383 3.75704 16.477C3.99213 15.6427 3.9811 14.2818 3.98038 14.2628C3.90603 11.9832 2.85473 10.3584 1.00681 9.6459ZM1.03088 10.7497C1.68865 11.0852 2.18461 11.5822 2.50973 12.2325C3.05879 13.3326 3.03376 14.6738 2.91919 15.5497C1.86242 14.2043 1.18016 12.5515 1.03088 10.7497ZM18.357 6.65813C17.4723 4.45332 15.7392 2.67711 13.5637 1.73556C13.4777 1.89718 13.3681 2.05243 13.2403 2.12389C12.813 2.3318 12.3914 2.49963 11.9699 2.66745L11.9395 2.67953C10.8385 3.11509 9.79854 3.52714 9.11782 4.42365C9.09058 4.45893 9.06639 4.49647 9.04552 4.53586C9.14738 4.52527 9.27284 4.50332 9.35585 4.48879L9.35999 4.48807C9.36938 4.4864 9.37875 4.48474 9.38809 4.48307C9.57563 4.4497 9.75137 4.41842 9.92438 4.43141C9.96253 4.43428 13.8789 4.90399 14.0938 5.95674C14.1659 6.32588 13.9609 6.72229 13.5469 7.02413C13.0469 7.38739 12.1484 7.64032 11.2657 7.1541C11.1759 7.10519 10.819 6.9871 9.44892 6.74681C9.29857 6.73017 8.52215 6.82299 7.92649 7.40302C7.41188 7.90501 7.16859 8.6404 7.20386 9.59058C7.24101 10.5925 7.82492 11.1725 8.80548 11.1832L9.08567 11.1842C10.03 11.1842 11.3225 11.1852 11.7345 12.6794C11.8986 13.2751 11.9455 13.8668 11.9884 14.439C12.0275 14.9439 12.0646 15.4206 12.1798 15.8814C12.2287 16.0797 12.3673 16.5435 12.594 16.5631C13.131 16.607 13.4982 16.2935 14.0138 15.6958C14.1413 15.5464 14.2801 15.4036 14.4189 15.2608L14.4299 15.2495C14.7013 14.9722 14.9572 14.7105 15.1212 14.4128C15.3067 14.0719 15.3829 13.6735 15.4611 13.2526C15.5548 12.7506 15.6525 12.2321 15.9434 11.7301L16.045 11.5562C16.6055 10.5924 16.8848 10.0387 17.0138 9.7223C15.7833 9.69303 15.0431 9.16077 14.7482 8.62752C14.5392 8.24962 14.5372 7.8561 14.7423 7.57577C15.1409 7.03476 15.879 7.23103 16.5313 7.4059L16.5534 7.41177C16.8116 7.48038 17.2578 7.59899 17.3888 7.55438C17.4057 7.17926 17.9012 6.85119 18.357 6.65813Z" fill="#1F66FF"/>
</svg>
