<?xml version="1.0" encoding="UTF-8" standalone="no"?>
<!DOCTYPE svg PUBLIC "-//W3C//DTD SVG 1.1//EN" "http://www.w3.org/Graphics/SVG/1.1/DTD/svg11.dtd">
<svg width="100%" height="100%" viewBox="0 0 1142 1142" version="1.1" xmlns="http://www.w3.org/2000/svg" xmlns:xlink="http://www.w3.org/1999/xlink" xml:space="preserve" xmlns:serif="http://www.serif.com/" style="fill-rule:evenodd;clip-rule:evenodd;stroke-linejoin:round;stroke-miterlimit:2;">
    <g transform="matrix(1,0,0,1,-47059.6,-11308.2)">
        <g id="Plan-de-travail1" serif:id="Plan de travail1" transform="matrix(0.43884,0,0,0.43884,47113.2,11308.2)">
            <rect x="-122" y="0" width="2602.32" height="2602.32" style="fill:none;"/>
            <g transform="matrix(8.12637,0,0,3.02129,-2109.83,-2622.72)">
                <g>
                    <g transform="matrix(0.280412,0,0,0.754225,-3346.55,319.792)">
                        <path d="M13884.1,1350.66C13861.8,1582.58 13684.1,1769.4 13456.5,1805.75L13375.5,1603.02C13525.2,1603.02 13649.6,1493.75 13673.3,1350.66L13884.1,1350.66ZM13073.6,1301.16L12871.3,1217.16C12911.5,975.034 13122,790.157 13375.5,790.157C13640.8,790.157 13859.2,992.821 13884.1,1251.66L13673.3,1251.66C13649.6,1108.56 13525.2,999.291 13375.5,999.291C13208.9,999.291 13073.6,1134.55 13073.6,1301.16Z" style="fill:rgb(31,102,255);"/>
                    </g>
                    <g transform="matrix(0.319437,0,0,0.859288,-2912.42,124.568)">
                        <path d="M10453.5,1812.16C10453.5,1812.16 10453.5,1640.64 10453.5,1496.34C10453.5,1388.54 10366.1,1301.16 10258.3,1301.16C10114,1301.16 9942.46,1301.16 9942.46,1301.16C9942.46,1301.16 9942.46,1317.49 9942.46,1340.46L10088.2,1486.17C10123.2,1486.17 10159.3,1486.17 10189.9,1486.17C10210.7,1486.17 10230.7,1494.44 10245.4,1509.17C10260.2,1523.9 10268.5,1543.88 10268.5,1564.7L10268.5,1666.45L10414.2,1812.16C10437.1,1812.16 10453.5,1812.16 10453.5,1812.16Z" style="fill:rgb(0,207,217);"/>
                    </g>
                </g>
            </g>
        </g>
    </g>
</svg>
