<svg width="780" height="523" viewBox="0 0 780 523" fill="none" xmlns="http://www.w3.org/2000/svg">
<g clip-path="url(#clip0_1366_508)">
<path fillRule="evenodd" clipRule="evenodd" d="M779.919 586.482C779.548 587.892 779.17 589.302 778.784 590.712C712.287 828.867 465.594 967.891 228.232 901.199C-9.13102 834.508 -147.852 587.086 -81.355 348.931C-14.8596 110.776 231.835 -28.2476 469.196 38.4438C610.665 78.1363 717.094 182.102 765.929 310.045C716.985 337.648 659.882 355.176 624.777 357.191C597.999 233.278 509.553 148.252 379.569 111.783C192.436 59.1955 -2.0567 168.803 -54.4817 356.587C-106.907 544.169 2.46068 739.409 189.594 791.996C353.6 837.935 523.254 759.355 597.971 612.876C661.346 614.286 724.184 603.608 779.919 586.482Z" fill="white"/>
<path fillRule="evenodd" clipRule="evenodd" d="M542.684 440.368C546.247 475.83 543.397 512.499 533.249 548.767C489.702 704.716 328.143 795.988 172.698 752.266C17.2505 708.544 -73.5974 546.55 -30.0485 390.601C13.4984 234.652 175.056 143.581 330.503 187.102C377.059 200.198 417.822 223.974 450.912 255.002C427.67 273.136 403.88 290.061 380.481 305.777C352.983 275.554 317.037 252.585 274.967 240.698C154.837 207.05 29.9832 277.368 -3.66924 397.856C-37.3237 518.545 32.8837 643.667 153.013 677.516C273.143 711.164 397.997 640.846 431.651 520.358C436.66 502.426 439.37 484.293 439.953 466.361C474.885 460.316 509.357 451.45 542.684 440.368Z" fill="white"/>
<path fillRule="evenodd" clipRule="evenodd" d="M320.966 378.843C346.014 417.931 354.954 467.092 341.51 515.046C316.59 604.303 224.137 656.487 135.183 631.503C46.2272 606.519 -5.75989 513.838 19.1591 424.58C42.5695 340.763 125.576 289.584 209.285 304.494C199.65 320.21 190.376 334.92 181.783 348.016C122.754 337.539 64.1803 373.403 47.6735 432.64C30.1161 495.503 66.7413 560.783 129.408 578.313C192.077 596.043 257.207 559.171 274.764 496.308C283.355 465.682 278.972 434.25 264.914 408.259C284.086 399.595 302.79 389.723 320.966 378.843Z" fill="white"/>
<path d="M109.975 426.904C136.582 414.616 168.082 426.291 180.333 452.98C192.583 479.67 180.944 511.268 154.337 523.556C127.73 535.844 96.2294 524.17 83.9791 497.48C71.7289 470.79 83.3676 439.192 109.975 426.904Z" fill="white"/>
</g>
<defs>
<clipPath id="clip0_1366_508">
<rect width="878" height="623" fill="white" transform="translate(-98)"/>
</clipPath>
</defs>
</svg>
