<svg width="439" height="453" viewBox="0 0 439 453" fill="none" xmlns="http://www.w3.org/2000/svg">
<g clip-path="url(#clip0_1366_651)">
<path fillRule="evenodd" clipRule="evenodd" d="M438.956 321.424C438.752 322.197 438.544 322.97 438.333 323.743C401.827 454.265 266.399 530.457 136.093 493.907C5.78684 457.356 -70.3677 321.755 -33.8623 191.233C2.64196 60.7113 138.071 -15.4813 268.376 21.0693C346.039 42.8229 404.466 99.8018 431.275 169.922C404.406 185.05 373.058 194.656 353.787 195.76C339.086 127.849 290.531 81.2501 219.173 61.2632C116.442 32.4424 9.67046 92.5134 -19.1095 195.429C-47.8896 298.235 12.1504 405.237 114.882 434.058C204.917 459.234 298.053 416.168 339.07 335.89C373.862 336.663 408.358 330.81 438.956 321.424Z" fill="white"/>
<path fillRule="evenodd" clipRule="evenodd" d="M308.719 241.346C310.675 260.781 309.111 280.878 303.54 300.754C279.634 386.223 190.942 436.245 105.606 412.283C20.2695 388.321 -29.6037 299.54 -5.69642 214.071C18.2097 128.602 106.901 78.6902 192.237 102.542C217.795 109.72 240.173 122.75 258.339 139.755C245.579 149.693 232.519 158.969 219.674 167.582C204.578 151.019 184.845 138.431 161.749 131.916C95.8011 113.475 27.2595 152.013 8.78511 218.047C-9.69033 284.191 28.8517 352.765 94.7999 371.316C160.748 389.757 229.29 351.219 247.765 285.185C250.515 275.357 252.003 265.419 252.322 255.591C271.499 252.278 290.423 247.419 308.719 241.346Z" fill="white"/>
<path fillRule="evenodd" clipRule="evenodd" d="M187.001 207.627C200.752 229.049 205.66 255.992 198.279 282.273C184.599 331.192 133.844 359.791 85.0109 346.099C36.1764 332.406 7.63676 281.612 21.3166 232.693C34.1684 186.757 79.7367 158.708 125.691 166.88C120.401 175.493 115.31 183.554 110.593 190.732C78.1875 184.99 46.0322 204.646 36.9703 237.11C27.3318 271.563 47.4381 307.34 81.8406 316.947C116.244 326.665 151.999 306.457 161.637 272.004C166.354 255.22 163.947 237.993 156.23 223.748C166.755 219 177.023 213.59 187.001 207.627Z" fill="white"/>
<path d="M71.1733 233.967C85.78 227.232 103.073 233.631 109.798 248.258C116.523 262.886 110.134 280.203 95.5269 286.938C80.9202 293.672 63.6274 287.274 56.9023 272.646C50.1772 258.019 56.5666 240.701 71.1733 233.967Z" fill="white"/>
</g>
<defs>
<clipPath id="clip0_1366_651">
<rect width="482" height="453" fill="white" transform="translate(-43)"/>
</clipPath>
</defs>
</svg>
