<svg width="20" height="21" viewBox="0 0 20 21" fill="none" xmlns="http://www.w3.org/2000/svg">
<path fill-rule="evenodd" clip-rule="evenodd" d="M4.56221 1.23664C6.04348 1.06085 7.96115 0.945068 10 0.945068C12.0388 0.945068 13.9565 1.06085 15.4378 1.23664C16.1767 1.32433 16.8216 1.42864 17.325 1.5451C17.5758 1.60311 17.8073 1.66772 18.0051 1.74083C18.1756 1.80389 18.4216 1.90794 18.6237 2.09176C18.8145 2.26537 18.9274 2.48409 18.9873 2.61403L18.6269 2.78019L18.9873 2.61403C19.0562 2.76339 19.112 2.92384 19.1578 3.07463C19.2497 3.37724 19.3308 3.74005 19.4023 4.11626C19.5465 4.87463 19.6734 5.80349 19.7719 6.67409C19.7802 6.74681 19.7882 6.82031 19.7961 6.89455C19.8095 6.96641 19.8171 7.0405 19.8187 7.11602C19.8501 7.43364 19.8779 7.76394 19.9018 8.10429C19.9643 8.99193 20 9.95268 20 10.9452C20 12.3166 19.9318 13.6295 19.8187 14.7745C19.8171 14.8497 19.8095 14.9236 19.7961 14.9953C19.7882 15.0697 19.7802 15.1434 19.7719 15.2163C19.6734 16.0868 19.5465 17.0156 19.4023 17.774C19.3308 18.1501 19.2497 18.5129 19.1578 18.8155C19.112 18.9663 19.0562 19.1268 18.9873 19.2761C18.9274 19.4061 18.8145 19.6248 18.6237 19.7984L18.3642 19.5132L18.6237 19.7984C18.6237 19.7984 18.6237 19.7984 18.6237 19.7984C18.4216 19.9822 18.1756 20.0863 18.005 20.1493C17.8073 20.2224 17.5758 20.287 17.325 20.3451C16.8216 20.4615 16.1767 20.5658 15.4378 20.6535C13.9565 20.8293 12.0388 20.9451 10 20.9451C7.96115 20.9451 6.04348 20.8293 4.56221 20.6535C3.82333 20.5658 3.17844 20.4615 2.67496 20.3451C2.42421 20.2871 2.19265 20.2224 1.99494 20.1493C1.82441 20.0863 1.57832 19.9822 1.37625 19.7984C1.1291 19.5735 0.987789 19.2604 0.910022 19.0646C0.818868 18.835 0.741641 18.5712 0.674916 18.2988C0.540715 17.7509 0.423023 17.0597 0.325278 16.2958C0.129115 14.7628 0 12.8309 0 10.9452C0 9.9526 0.035753 8.99183 0.0981216 8.10426C0.18485 6.86995 0.324026 5.60774 0.493059 4.59589C0.577057 4.09308 0.672913 3.62462 0.781117 3.24276C0.834986 3.05266 0.898954 2.85867 0.976372 2.68287C1.04369 2.53002 1.16705 2.28215 1.37624 2.09182L1.64329 2.38534L1.37624 2.09182C1.57831 1.90796 1.8244 1.8039 1.99493 1.74083C2.19265 1.66772 2.4242 1.60311 2.67495 1.5451C3.17844 1.42864 3.82333 1.32433 4.56221 1.23664ZM19.0082 6.99122C19.0001 6.91439 18.9918 6.83842 18.9833 6.76333L19.3776 6.71871L18.9833 6.76333C18.8859 5.9021 18.7616 4.99522 18.6226 4.26453C18.5533 3.90022 18.4784 3.56879 18.3984 3.30525L18.7781 3.18994L18.3984 3.30525C18.3583 3.17342 18.3146 3.05055 18.2666 2.94635C18.2193 2.84379 18.1602 2.74308 18.0896 2.67884L18.0896 2.67883C18.0046 2.60151 17.8778 2.53996 17.7298 2.48521C17.5748 2.42792 17.3785 2.37208 17.1462 2.31834C16.6812 2.21077 16.0674 2.11058 15.3443 2.02476C13.8978 1.85311 12.0117 1.73872 10 1.73872C7.98832 1.73872 6.10216 1.85311 4.65574 2.02476C3.93264 2.11058 3.31882 2.21077 2.85381 2.31834C2.62148 2.37208 2.42515 2.42792 2.27021 2.48521C2.12215 2.53997 1.99533 2.60153 1.91035 2.67885L1.91035 2.67885C1.82806 2.75372 1.75888 2.8752 1.70271 3.00273C1.64558 3.13248 1.59313 3.28824 1.5447 3.45914C1.44782 3.80105 1.3576 4.23738 1.27586 4.72666C1.11202 5.70743 0.975282 6.9436 0.88982 8.15989L0.493971 8.13207L0.88982 8.15989C0.828743 9.02908 0.793651 9.97129 0.793651 10.9452C0.793651 12.7986 0.920797 14.6968 1.11251 16.1951C1.20825 16.9433 1.32139 17.6022 1.44578 18.11C1.50789 18.3636 1.57505 18.5888 1.64765 18.7717C1.7185 18.9501 1.80572 19.1161 1.91035 19.2113L1.6433 19.5048L1.91036 19.2113C1.99534 19.2886 2.12215 19.3502 2.27021 19.4049L2.13258 19.7771L2.27021 19.4049C2.42515 19.4622 2.62148 19.5181 2.85381 19.5718C3.31882 19.6794 3.93264 19.7796 4.65574 19.8654C6.10216 20.037 7.98832 20.1514 10 20.1514C12.0117 20.1514 13.8978 20.037 15.3443 19.8654C16.0674 19.7796 16.6812 19.6794 17.1462 19.5718C17.3785 19.5181 17.5748 19.4622 17.7298 19.4049C17.8778 19.3502 18.0046 19.2886 18.0896 19.2113L18.0896 19.2113C18.1602 19.1471 18.2193 19.0464 18.2666 18.9438C18.3146 18.8396 18.3583 18.7167 18.3984 18.5849L18.7103 18.6797L18.3984 18.5849C18.4784 18.3214 18.5533 17.99 18.6226 17.6257C18.7616 16.895 18.8859 15.9882 18.9833 15.127C18.992 15.0507 19.0004 14.9734 19.0086 14.8952C19.0099 14.8827 19.0118 14.8704 19.0143 14.8581C19.0211 14.8243 19.0251 14.7878 19.0253 14.7493C19.0254 14.7371 19.0261 14.7249 19.0273 14.7128C19.1387 13.5908 19.2063 12.2979 19.2063 10.9452C19.2063 9.97259 19.1714 9.03157 19.1104 8.1633L19.0082 6.99122Z" fill="black"/>
<path d="M15.5625 7.73315V14.156L10 17.3679L4.4375 14.156V7.73315L10 4.52124L15.5625 7.73315Z" stroke="black"/>
<circle cx="10" cy="10.9451" r="2.5" stroke="black"/>
</svg>
