<svg width="20" height="20" viewBox="0 0 20 20" fill="none" xmlns="http://www.w3.org/2000/svg">
<path d="M9.98644 4.0002C9.89759 4.00329 9.81204 4.03513 9.7423 4.0911L5.79427 7.24924C5.29319 7.65021 5 8.26291 5 8.91067V14.2949C5 14.6795 5.31567 15 5.69444 15H8.47222C8.851 15 9.16667 14.6795 9.16667 14.2949V11.4744C9.16667 11.3912 9.2236 11.3334 9.30556 11.3334H10.6944C10.7764 11.3334 10.8333 11.3912 10.8333 11.4744V14.2949C10.8333 14.6795 11.149 15 11.5278 15H14.3056C14.6843 15 15 14.6795 15 14.2949V8.91067C15 8.26291 14.7068 7.65021 14.2057 7.24924L10.2577 4.0911C10.1807 4.0293 10.0846 3.9971 9.98644 4.0002ZM10 4.96203L13.6903 7.91414C13.9915 8.15512 14.1667 8.52163 14.1667 8.91067V14.1539H11.6667V11.4744C11.6667 10.9343 11.2264 10.4873 10.6944 10.4873H9.30556C8.77362 10.4873 8.33333 10.9343 8.33333 11.4744V14.1539H5.83333V8.91067C5.83333 8.52163 6.00854 8.15512 6.30968 7.91414L10 4.96203Z" fill="black"/>
<path d="M10 0C12.0387 1.24107e-08 13.9563 0.116218 15.4375 0.291992C16.1764 0.379679 16.8217 0.483144 17.3252 0.599609C17.5759 0.657599 17.8072 0.722803 18.0049 0.795898C18.1754 0.858951 18.422 0.96266 18.624 1.14648C18.8148 1.32007 18.9274 1.53902 18.9873 1.66895C19.0562 1.8183 19.1124 1.97908 19.1582 2.12988C19.25 2.43233 19.3308 2.79496 19.4023 3.1709C19.5466 3.92928 19.673 4.85889 19.7715 5.72949C19.7797 5.80199 19.7881 5.87522 19.7959 5.94922C19.8093 6.02106 19.8168 6.0954 19.8184 6.1709C19.8497 6.48849 19.8775 6.81886 19.9014 7.15918C19.9638 8.04677 20 9.00753 20 10C20 11.3713 19.9314 12.6842 19.8184 13.8291C19.8168 13.9043 19.8092 13.9783 19.7959 14.0498C19.788 14.1242 19.7797 14.1986 19.7715 14.2715C19.673 15.1419 19.5465 16.0709 19.4023 16.8291C19.3308 17.205 19.25 17.5677 19.1582 17.8701C19.1124 18.0209 19.0562 18.1817 18.9873 18.3311C18.9274 18.461 18.8148 18.6799 18.624 18.8535C18.422 19.0374 18.1754 19.141 18.0049 19.2041C17.8072 19.2772 17.5759 19.3424 17.3252 19.4004C16.8217 19.5169 16.1764 19.6203 15.4375 19.708C13.9563 19.8838 12.0387 20 10 20C7.96126 20 6.04374 19.8838 4.5625 19.708C3.82362 19.6203 3.17829 19.5169 2.6748 19.4004C2.42412 19.3424 2.19279 19.2772 1.99512 19.2041C1.82458 19.141 1.57804 19.0374 1.37598 18.8535C1.12885 18.6287 0.987919 18.315 0.910156 18.1191C0.819046 17.8896 0.741505 17.6258 0.674805 17.3535C0.540631 16.8057 0.422925 16.1144 0.325195 15.3506C0.129046 13.8176 0 11.8856 0 10C3.06235e-06 9.00746 0.0352912 8.04671 0.0976562 7.15918C0.184385 5.92487 0.32413 4.66224 0.493164 3.65039C0.577136 3.14779 0.673089 2.67958 0.78125 2.29785C0.835085 2.10787 0.89921 1.91399 0.976562 1.73828C1.04388 1.58543 1.16679 1.33681 1.37598 1.14648C1.57805 0.962627 1.82458 0.858963 1.99512 0.795898C2.19279 0.722805 2.42412 0.657599 2.6748 0.599609C3.17829 0.483145 3.82362 0.379679 4.5625 0.291992C6.04374 0.116219 7.96126 0 10 0ZM10 0.793945C7.98832 0.793945 6.10169 0.908424 4.65527 1.08008C3.9324 1.16588 3.31842 1.26551 2.85352 1.37305C2.62143 1.42674 2.42535 1.4828 2.27051 1.54004C2.1225 1.59477 1.99514 1.65611 1.91016 1.7334C1.82791 1.80823 1.75927 1.93015 1.70312 2.05762C1.64604 2.18725 1.59331 2.34294 1.54492 2.51367C1.44805 2.85552 1.35712 3.29207 1.27539 3.78125C1.11155 4.76202 0.97511 5.99856 0.889648 7.21484C0.828576 8.08398 0.793948 9.02615 0.793945 10C0.793945 11.8534 0.920596 13.7517 1.1123 15.25C1.20804 15.9982 1.32093 16.6572 1.44531 17.165C1.50737 17.4184 1.57492 17.6434 1.64746 17.8262C1.71831 18.0046 1.80552 18.1714 1.91016 18.2666C1.99514 18.3439 2.12249 18.4052 2.27051 18.46C2.42535 18.5172 2.62143 18.5733 2.85352 18.627C3.31842 18.7345 3.9324 18.8341 4.65527 18.9199C6.10169 19.0916 7.98832 19.2061 10 19.2061C12.0117 19.2061 13.8983 19.0916 15.3447 18.9199C16.0676 18.8341 16.6816 18.7345 17.1465 18.627C17.3786 18.5733 17.5747 18.5172 17.7295 18.46C17.8775 18.4052 18.0049 18.3439 18.0898 18.2666C18.1604 18.2024 18.2193 18.1015 18.2666 17.999C18.3146 17.8948 18.3584 17.7715 18.3984 17.6396C18.4784 17.3762 18.5538 17.0449 18.623 16.6807C18.762 15.95 18.8859 15.0428 18.9834 14.1816C18.992 14.1054 19.0006 14.0283 19.0088 13.9502C19.0101 13.9378 19.0122 13.9253 19.0146 13.9131C19.0215 13.8794 19.0251 13.843 19.0254 13.8047C19.0255 13.7925 19.0261 13.7797 19.0273 13.7676C19.1387 12.6456 19.2061 11.3526 19.2061 10C19.2061 9.02744 19.1713 8.086 19.1104 7.21777L19.0078 6.0459C18.9997 5.9692 18.9919 5.89331 18.9834 5.81836C18.8859 4.95713 18.762 4.05003 18.623 3.31934C18.5538 2.95513 18.4784 2.62385 18.3984 2.36035C18.3584 2.22853 18.3146 2.10517 18.2666 2.00098C18.2193 1.8985 18.1604 1.79759 18.0898 1.7334C18.0049 1.6561 17.8775 1.59477 17.7295 1.54004C17.5747 1.4828 17.3786 1.42674 17.1465 1.37305C16.6816 1.26551 16.0676 1.16588 15.3447 1.08008C13.8983 0.908424 12.0117 0.793945 10 0.793945Z" fill="#1E1E1E"/>
</svg>
