<svg width="20" height="21" viewBox="0 0 20 21" fill="none" xmlns="http://www.w3.org/2000/svg">
<path fill-rule="evenodd" clip-rule="evenodd" d="M4.56221 0.686349C6.04348 0.510559 7.96115 0.394775 10 0.394775C12.0388 0.394775 13.9565 0.510559 15.4378 0.686349C16.1767 0.774035 16.8216 0.878344 17.325 0.99481C17.5758 1.05281 17.8073 1.11742 18.0051 1.19054C18.1756 1.25359 18.4216 1.35764 18.6237 1.54147C18.8145 1.71508 18.9274 1.9338 18.9873 2.06374L18.6269 2.2299L18.9873 2.06374C19.0562 2.2131 19.112 2.37354 19.1578 2.52434C19.2497 2.82695 19.3308 3.18976 19.4023 3.56596C19.5465 4.32434 19.6734 5.2532 19.7719 6.12379C19.7802 6.19652 19.7882 6.27002 19.7961 6.34426C19.8095 6.41611 19.8171 6.49021 19.8187 6.56573C19.8501 6.88335 19.8779 7.21365 19.9018 7.554C19.9643 8.44163 20 9.40239 20 10.3949C20 11.7663 19.9318 13.0792 19.8187 14.2242C19.8171 14.2995 19.8095 14.3733 19.7961 14.445C19.7882 14.5194 19.7802 14.5931 19.7719 14.666C19.6734 15.5365 19.5465 16.4653 19.4023 17.2237C19.3308 17.5999 19.2497 17.9627 19.1578 18.2653C19.112 18.416 19.0562 18.5765 18.9873 18.7258C18.9274 18.8558 18.8145 19.0745 18.6237 19.2481L18.3642 18.9629L18.6237 19.2481C18.6237 19.2481 18.6237 19.2481 18.6237 19.2481C18.4216 19.4319 18.1756 19.536 18.005 19.599C17.8073 19.6721 17.5758 19.7368 17.325 19.7948C16.8216 19.9112 16.1767 20.0155 15.4378 20.1032C13.9565 20.279 12.0388 20.3948 10 20.3948C7.96115 20.3948 6.04348 20.279 4.56221 20.1032C3.82333 20.0155 3.17844 19.9112 2.67496 19.7948C2.42421 19.7368 2.19265 19.6722 1.99494 19.599C1.82441 19.536 1.57832 19.4319 1.37625 19.2481C1.1291 19.0232 0.987789 18.7101 0.910022 18.5143C0.818868 18.2847 0.741641 18.021 0.674916 17.7485C0.540715 17.2007 0.423023 16.5095 0.325278 15.7455C0.129115 14.2125 0 12.2806 0 10.3949C0 9.40231 0.035753 8.44154 0.0981216 7.55397C0.18485 6.31965 0.324026 5.05745 0.493059 4.0456C0.577057 3.54278 0.672913 3.07433 0.781117 2.69247C0.834986 2.50237 0.898954 2.30838 0.976372 2.13258C1.04369 1.97972 1.16705 1.73186 1.37624 1.54153L1.64329 1.83504L1.37624 1.54153C1.57831 1.35767 1.8244 1.2536 1.99493 1.19054C2.19265 1.11742 2.4242 1.05281 2.67495 0.994809C3.17844 0.878345 3.82333 0.774035 4.56221 0.686349ZM19.0082 6.44092C19.0001 6.3641 18.9918 6.28812 18.9833 6.21304L19.3776 6.16842L18.9833 6.21304C18.8859 5.35181 18.7616 4.44493 18.6226 3.71423C18.5533 3.34993 18.4784 3.0185 18.3984 2.75495L18.7781 2.63965L18.3984 2.75495C18.3583 2.62313 18.3146 2.50026 18.2666 2.39606C18.2193 2.2935 18.1602 2.19279 18.0896 2.12855L18.0896 2.12853C18.0046 2.05121 17.8778 1.98966 17.7298 1.93492C17.5748 1.87762 17.3785 1.82179 17.1462 1.76804C16.6812 1.66048 16.0674 1.56028 15.3443 1.47447C13.8978 1.30282 12.0117 1.18843 10 1.18843C7.98832 1.18843 6.10216 1.30282 4.65574 1.47447C3.93264 1.56028 3.31882 1.66048 2.85381 1.76804C2.62148 1.82179 2.42515 1.87762 2.27021 1.93492C2.12215 1.98967 1.99533 2.05123 1.91035 2.12856L1.91035 2.12856C1.82806 2.20343 1.75888 2.3249 1.70271 2.45244C1.64558 2.58219 1.59313 2.73795 1.5447 2.90884C1.44782 3.25075 1.3576 3.68708 1.27586 4.17637C1.11202 5.15714 0.975282 6.39331 0.88982 7.60959L0.493971 7.58178L0.88982 7.6096C0.828743 8.47878 0.793651 9.421 0.793651 10.3949C0.793651 12.2483 0.920797 14.1465 1.11251 15.6448C1.20825 16.393 1.32139 17.0519 1.44578 17.5597C1.50789 17.8133 1.57505 18.0385 1.64765 18.2214C1.7185 18.3998 1.80572 18.5658 1.91035 18.661L1.6433 18.9545L1.91036 18.661C1.99534 18.7383 2.12215 18.7999 2.27021 18.8547L2.13258 19.2268L2.27021 18.8547C2.42515 18.9119 2.62148 18.9678 2.85381 19.0215C3.31882 19.1291 3.93264 19.2293 4.65574 19.3151C6.10216 19.4867 7.98832 19.6011 10 19.6011C12.0117 19.6011 13.8978 19.4867 15.3443 19.3151C16.0674 19.2293 16.6812 19.1291 17.1462 19.0215C17.3785 18.9678 17.5748 18.9119 17.7298 18.8547C17.8778 18.7999 18.0046 18.7384 18.0896 18.661L18.0896 18.661C18.1602 18.5968 18.2193 18.4961 18.2666 18.3935C18.3146 18.2893 18.3583 18.1665 18.3984 18.0346L18.7103 18.1294L18.3984 18.0346C18.4784 17.7711 18.5533 17.4397 18.6226 17.0754C18.7616 16.3447 18.8859 15.4379 18.9833 14.5767C18.992 14.5004 19.0004 14.4231 19.0086 14.3449C19.0099 14.3324 19.0118 14.3201 19.0143 14.3078C19.0211 14.274 19.0251 14.2375 19.0253 14.199C19.0254 14.1868 19.0261 14.1747 19.0273 14.1625C19.1387 13.0405 19.2063 11.7476 19.2063 10.3949C19.2063 9.4223 19.1714 8.48128 19.1104 7.61301L19.0082 6.44092Z" fill="black"/>
<path fill-rule="evenodd" clip-rule="evenodd" d="M9.625 8.09849C9.89128 8.09849 10.1071 8.27838 10.1071 8.50028V10.4767L11.5731 11.6983C11.7614 11.8552 11.7614 12.1096 11.5731 12.2665C11.3848 12.4234 11.0795 12.4234 10.8912 12.2665L9.28407 10.9272C9.19365 10.8519 9.14286 10.7497 9.14286 10.6431V8.50028C9.14286 8.27838 9.35872 8.09849 9.625 8.09849Z" fill="#1E1E1E"/>
<path d="M5.28483 7.51337L4.8233 7.51569C4.82457 7.76878 5.02942 7.97363 5.28251 7.97491L5.28483 7.51337ZM6.849 7.98278C7.1039 7.98406 7.31158 7.77846 7.31286 7.52357C7.31414 7.26867 7.10854 7.06099 6.85364 7.05971L6.849 7.98278ZM5.73849 5.94456C5.73721 5.68966 5.52954 5.48406 5.27464 5.48534C5.01974 5.48663 4.81414 5.6943 4.81543 5.9492L5.73849 5.94456ZM4.92308 10.6699C4.92308 10.415 4.71644 10.2084 4.46154 10.2084C4.20664 10.2084 4 10.415 4 10.6699H4.92308ZM13.0003 15.867C13.221 15.7393 13.2964 15.457 13.1687 15.2363C13.0411 15.0157 12.7588 14.9403 12.5382 15.068L13.0003 15.867ZM14.398 13.2081C14.2703 13.4287 14.3458 13.711 14.5664 13.8387C14.7871 13.9663 15.0694 13.8909 15.197 13.6702L14.398 13.2081ZM5.77866 6.40608C5.59753 6.58542 5.59607 6.87765 5.77542 7.05879C5.95476 7.23993 6.24698 7.24138 6.42812 7.06204L5.77866 6.40608ZM14.223 6.44707C11.8721 4.09617 8.07312 4.07237 5.73778 6.40771L6.3905 7.06042C8.35918 5.09174 11.5737 5.10318 13.5703 7.09978L14.223 6.44707ZM5.73778 6.40771L4.95847 7.18702L5.61119 7.83973L6.3905 7.06042L5.73778 6.40771ZM5.28251 7.97491L6.849 7.98278L6.85364 7.05971L5.28715 7.05184L5.28251 7.97491ZM5.74636 7.51105L5.73849 5.94456L4.81543 5.9492L4.8233 7.51569L5.74636 7.51105ZM10 5.593C12.8039 5.593 15.0769 7.86601 15.0769 10.6699H16C16 7.35621 13.3137 4.66992 10 4.66992V5.593ZM10 15.7468C7.19609 15.7468 4.92308 13.4738 4.92308 10.6699H4C4 13.9836 6.68629 16.6699 10 16.6699V15.7468ZM12.5382 15.068C11.7919 15.4996 10.9255 15.7468 10 15.7468V16.6699C11.0921 16.6699 12.1174 16.3777 13.0003 15.867L12.5382 15.068ZM15.0769 10.6699C15.0769 11.5954 14.8297 12.4618 14.398 13.2081L15.197 13.6702C15.7078 12.7873 16 11.762 16 10.6699H15.0769ZM6.42812 7.06204C7.34589 6.15336 8.60705 5.593 10 5.593V4.66992C8.3541 4.66992 6.86223 5.33325 5.77866 6.40608L6.42812 7.06204Z" fill="#1E1E1E"/>
</svg>
