<svg width="13" height="12" viewBox="0 0 13 12" fill="none" xmlns="http://www.w3.org/2000/svg">
<path d="M9.55566 0.669922C10.5955 0.669922 11.4211 0.787511 11.9521 1.31152C12.4852 1.83758 12.6045 2.65699 12.6045 3.68359V8.49609C12.6045 9.52253 12.4849 10.3412 11.9531 10.8672C11.4229 11.3915 10.5986 11.5098 9.56152 11.5098H3.04395C2.00724 11.5127 1.18305 11.3966 0.652344 10.873C0.119973 10.3477 0 9.52838 0 8.50195V3.68359C0 2.65715 0.119628 1.83851 0.651367 1.3125C1.18163 0.788209 2.00588 0.669922 3.04297 0.669922H9.55566ZM0.878906 4.48047V8.50195C0.878906 9.53321 1.02075 10.0015 1.26953 10.2471C1.51992 10.4942 1.99713 10.6338 3.04102 10.6309H9.56152C10.6056 10.6309 11.084 10.4903 11.335 10.2422C11.584 9.99574 11.7256 9.52693 11.7256 8.49609V4.48047H0.878906ZM3.95703 8.29102C4.19981 8.29102 4.39639 8.48771 4.39648 8.73047C4.39648 8.9733 4.19987 9.16992 3.95703 9.16992H2.78516C2.54232 9.16992 2.34473 8.9733 2.34473 8.73047C2.34482 8.48771 2.54238 8.29102 2.78516 8.29102H3.95703ZM7.76758 8.29102C8.01036 8.29102 8.20694 8.48771 8.20703 8.73047C8.20703 8.9733 8.01041 9.16992 7.76758 9.16992H5.42285C5.18002 9.16992 4.9834 8.9733 4.9834 8.73047C4.98349 8.48771 5.18007 8.29102 5.42285 8.29102H7.76758ZM3.04297 1.54883C1.99885 1.54883 1.52046 1.6894 1.26953 1.9375C1.02722 2.17725 0.888294 2.62718 0.880859 3.60059H11.7236C11.7162 2.62689 11.5768 2.17715 11.334 1.9375C11.0823 1.6893 10.6026 1.54883 9.55566 1.54883H3.04297Z" fill="#1E1E1E"/>
</svg>
