<svg width="20" height="21" viewBox="0 0 20 21" fill="none" xmlns="http://www.w3.org/2000/svg">
<path d="M10 0.394775C12.0387 0.394775 13.9563 0.510994 15.4375 0.686768C16.1764 0.774454 16.8217 0.87792 17.3252 0.994385C17.5759 1.05237 17.8072 1.11758 18.0049 1.19067C18.1754 1.25373 18.422 1.35744 18.624 1.54126C18.8148 1.71485 18.9274 1.9338 18.9873 2.06372C19.0562 2.21308 19.1124 2.37386 19.1582 2.52466C19.25 2.82711 19.3308 3.18974 19.4023 3.56567C19.5466 4.32405 19.673 5.25367 19.7715 6.12427C19.7797 6.19677 19.7881 6.26999 19.7959 6.34399C19.8093 6.41583 19.8168 6.49018 19.8184 6.56567C19.8497 6.88327 19.8775 7.21363 19.9014 7.55396C19.9638 8.44155 20 9.40231 20 10.3948C20 11.766 19.9314 13.079 19.8184 14.2239C19.8168 14.299 19.8092 14.373 19.7959 14.4446C19.788 14.519 19.7797 14.5934 19.7715 14.6663C19.673 15.5367 19.5465 16.4656 19.4023 17.2239C19.3308 17.5998 19.25 17.9624 19.1582 18.2649C19.1124 18.4157 19.0562 18.5765 18.9873 18.7258C18.9274 18.8558 18.8148 19.0747 18.624 19.2483C18.422 19.4321 18.1754 19.5358 18.0049 19.5989C17.8072 19.672 17.5759 19.7372 17.3252 19.7952C16.8217 19.9116 16.1764 20.0151 15.4375 20.1028C13.9563 20.2786 12.0387 20.3948 10 20.3948C7.96126 20.3948 6.04374 20.2786 4.5625 20.1028C3.82362 20.0151 3.17829 19.9116 2.6748 19.7952C2.42412 19.7372 2.19279 19.672 1.99512 19.5989C1.82458 19.5358 1.57804 19.4321 1.37598 19.2483C1.12885 19.0234 0.987919 18.7098 0.910156 18.5139C0.819046 18.2844 0.741505 18.0206 0.674805 17.7483C0.540631 17.2004 0.422925 16.5091 0.325195 15.7454C0.129046 14.2123 0 12.2804 0 10.3948C3.06235e-06 9.40223 0.0352912 8.44148 0.0976562 7.55396C0.184385 6.31964 0.32413 5.05701 0.493164 4.04517C0.577136 3.54257 0.673089 3.07436 0.78125 2.69263C0.835085 2.50264 0.89921 2.30877 0.976562 2.13306C1.04388 1.9802 1.16679 1.73159 1.37598 1.54126C1.57805 1.3574 1.82458 1.25374 1.99512 1.19067C2.19279 1.11758 2.42412 1.05237 2.6748 0.994385C3.17829 0.87792 3.82362 0.774454 4.5625 0.686768C6.04374 0.510994 7.96126 0.394775 10 0.394775ZM10 1.18872C7.98832 1.18872 6.10169 1.3032 4.65527 1.47485C3.9324 1.56065 3.31842 1.66028 2.85352 1.76782C2.62143 1.82151 2.42535 1.87758 2.27051 1.93481C2.1225 1.98955 1.99514 2.05089 1.91016 2.12817C1.82791 2.203 1.75927 2.32493 1.70312 2.45239C1.64604 2.58203 1.59331 2.73772 1.54492 2.90845C1.44805 3.2503 1.35712 3.68685 1.27539 4.17603C1.11155 5.15679 0.97511 6.39333 0.889648 7.60962C0.828576 8.47876 0.793948 9.42093 0.793945 10.3948C0.793945 12.2482 0.920596 14.1465 1.1123 15.6448C1.20804 16.393 1.32093 17.052 1.44531 17.5598C1.50737 17.8132 1.57492 18.0382 1.64746 18.2209C1.71831 18.3994 1.80552 18.5662 1.91016 18.6614C1.99514 18.7387 2.12249 18.8 2.27051 18.8547C2.42535 18.912 2.62143 18.968 2.85352 19.0217C3.31842 19.1293 3.9324 19.2289 4.65527 19.3147C6.10169 19.4863 7.98832 19.6008 10 19.6008C12.0117 19.6008 13.8983 19.4863 15.3447 19.3147C16.0676 19.2289 16.6816 19.1293 17.1465 19.0217C17.3786 18.968 17.5747 18.912 17.7295 18.8547C17.8775 18.8 18.0049 18.7387 18.0898 18.6614C18.1604 18.5972 18.2193 18.4963 18.2666 18.3938C18.3146 18.2896 18.3584 18.1662 18.3984 18.0344C18.4784 17.7709 18.5538 17.4396 18.623 17.0754C18.762 16.3448 18.8859 15.4376 18.9834 14.5764C18.992 14.5002 19.0006 14.423 19.0088 14.345C19.0101 14.3325 19.0122 14.3201 19.0146 14.3079C19.0215 14.2742 19.0251 14.2378 19.0254 14.1995C19.0255 14.1873 19.0261 14.1745 19.0273 14.1624C19.1387 13.0403 19.2061 11.7474 19.2061 10.3948C19.2061 9.42222 19.1713 8.48078 19.1104 7.61255L19.0078 6.44067C18.9997 6.36398 18.9919 6.28809 18.9834 6.21313C18.8859 5.35191 18.762 4.44481 18.623 3.71411C18.5538 3.3499 18.4784 3.01863 18.3984 2.75513C18.3584 2.62331 18.3146 2.49995 18.2666 2.39575C18.2193 2.29327 18.1604 2.19237 18.0898 2.12817C18.0049 2.05087 17.8775 1.98955 17.7295 1.93481C17.5747 1.87757 17.3786 1.82152 17.1465 1.76782C16.6816 1.66028 16.0676 1.56065 15.3447 1.47485C13.8983 1.3032 12.0117 1.18872 10 1.18872Z" fill="#1E1E1E"/>
<circle cx="10.5" cy="7.89478" r="2" stroke="black"/>
<path d="M6 15.3948C6 14.0614 6.9 11.3948 10.5 11.3948C14.1 11.3948 15 14.0614 15 15.3948" stroke="black"/>
</svg>
