<svg width="20" height="21" viewBox="0 0 20 21" fill="none" xmlns="http://www.w3.org/2000/svg">
<path fill-rule="evenodd" clip-rule="evenodd" d="M4.56221 0.686349C6.04348 0.510559 7.96115 0.394775 10 0.394775C12.0388 0.394775 13.9565 0.510559 15.4378 0.686349C16.1767 0.774035 16.8216 0.878344 17.325 0.99481C17.5758 1.05281 17.8073 1.11742 18.0051 1.19054C18.1756 1.25359 18.4216 1.35764 18.6237 1.54147C18.8145 1.71508 18.9274 1.9338 18.9873 2.06374L18.6269 2.2299L18.9873 2.06374C19.0562 2.2131 19.112 2.37354 19.1578 2.52434C19.2497 2.82695 19.3308 3.18976 19.4023 3.56596C19.5465 4.32434 19.6734 5.2532 19.7719 6.12379C19.7802 6.19652 19.7882 6.27002 19.7961 6.34426C19.8095 6.41611 19.8171 6.49021 19.8187 6.56573C19.8501 6.88335 19.8779 7.21365 19.9018 7.554C19.9643 8.44163 20 9.40239 20 10.3949C20 11.7663 19.9318 13.0792 19.8187 14.2242C19.8171 14.2995 19.8095 14.3733 19.7961 14.445C19.7882 14.5194 19.7802 14.5931 19.7719 14.666C19.6734 15.5365 19.5465 16.4653 19.4023 17.2237C19.3308 17.5999 19.2497 17.9627 19.1578 18.2653C19.112 18.416 19.0562 18.5765 18.9873 18.7258C18.9274 18.8558 18.8145 19.0745 18.6237 19.2481L18.3642 18.9629L18.6237 19.2481C18.6237 19.2481 18.6237 19.2481 18.6237 19.2481C18.4216 19.4319 18.1756 19.536 18.005 19.599C17.8073 19.6721 17.5758 19.7368 17.325 19.7948C16.8216 19.9112 16.1767 20.0155 15.4378 20.1032C13.9565 20.279 12.0388 20.3948 10 20.3948C7.96115 20.3948 6.04348 20.279 4.56221 20.1032C3.82333 20.0155 3.17844 19.9112 2.67496 19.7948C2.42421 19.7368 2.19265 19.6722 1.99494 19.599C1.82441 19.536 1.57832 19.4319 1.37625 19.2481C1.1291 19.0232 0.987789 18.7101 0.910022 18.5143C0.818868 18.2847 0.741641 18.021 0.674916 17.7485C0.540715 17.2007 0.423023 16.5095 0.325278 15.7455C0.129115 14.2125 0 12.2806 0 10.3949C0 9.40231 0.035753 8.44154 0.0981216 7.55397C0.18485 6.31965 0.324026 5.05745 0.493059 4.0456C0.577057 3.54278 0.672913 3.07433 0.781117 2.69247C0.834986 2.50237 0.898954 2.30838 0.976372 2.13258C1.04369 1.97972 1.16705 1.73186 1.37624 1.54153L1.64329 1.83504L1.37624 1.54153C1.57831 1.35767 1.8244 1.2536 1.99493 1.19054C2.19265 1.11742 2.4242 1.05281 2.67495 0.994809C3.17844 0.878345 3.82333 0.774035 4.56221 0.686349ZM19.0082 6.44092C19.0001 6.3641 18.9918 6.28812 18.9833 6.21304L19.3776 6.16842L18.9833 6.21304C18.8859 5.35181 18.7616 4.44493 18.6226 3.71423C18.5533 3.34993 18.4784 3.0185 18.3984 2.75495L18.7781 2.63965L18.3984 2.75495C18.3583 2.62313 18.3146 2.50026 18.2666 2.39606C18.2193 2.2935 18.1602 2.19279 18.0896 2.12855L18.0896 2.12853C18.0046 2.05121 17.8778 1.98966 17.7298 1.93492C17.5748 1.87762 17.3785 1.82179 17.1462 1.76804C16.6812 1.66048 16.0674 1.56028 15.3443 1.47447C13.8978 1.30282 12.0117 1.18843 10 1.18843C7.98832 1.18843 6.10216 1.30282 4.65574 1.47447C3.93264 1.56028 3.31882 1.66048 2.85381 1.76804C2.62148 1.82179 2.42515 1.87762 2.27021 1.93492C2.12215 1.98967 1.99533 2.05123 1.91035 2.12856L1.91035 2.12856C1.82806 2.20343 1.75888 2.3249 1.70271 2.45244C1.64558 2.58219 1.59313 2.73795 1.5447 2.90884C1.44782 3.25075 1.3576 3.68708 1.27586 4.17637C1.11202 5.15714 0.975282 6.39331 0.88982 7.60959L0.493971 7.58178L0.88982 7.6096C0.828743 8.47878 0.793651 9.421 0.793651 10.3949C0.793651 12.2483 0.920797 14.1465 1.11251 15.6448C1.20825 16.393 1.32139 17.0519 1.44578 17.5597C1.50789 17.8133 1.57505 18.0385 1.64765 18.2214C1.7185 18.3998 1.80572 18.5658 1.91035 18.661L1.6433 18.9545L1.91036 18.661C1.99534 18.7383 2.12215 18.7999 2.27021 18.8547L2.13258 19.2268L2.27021 18.8547C2.42515 18.9119 2.62148 18.9678 2.85381 19.0215C3.31882 19.1291 3.93264 19.2293 4.65574 19.3151C6.10216 19.4867 7.98832 19.6011 10 19.6011C12.0117 19.6011 13.8978 19.4867 15.3443 19.3151C16.0674 19.2293 16.6812 19.1291 17.1462 19.0215C17.3785 18.9678 17.5748 18.9119 17.7298 18.8547C17.8778 18.7999 18.0046 18.7384 18.0896 18.661L18.0896 18.661C18.1602 18.5968 18.2193 18.4961 18.2666 18.3935C18.3146 18.2893 18.3583 18.1665 18.3984 18.0346L18.7103 18.1294L18.3984 18.0346C18.4784 17.7711 18.5533 17.4397 18.6226 17.0754C18.7616 16.3447 18.8859 15.4379 18.9833 14.5767C18.992 14.5004 19.0004 14.4231 19.0086 14.3449C19.0099 14.3324 19.0118 14.3201 19.0143 14.3078C19.0211 14.274 19.0251 14.2375 19.0253 14.199C19.0254 14.1868 19.0261 14.1747 19.0273 14.1625C19.1387 13.0405 19.2063 11.7476 19.2063 10.3949C19.2063 9.4223 19.1714 8.48128 19.1104 7.61301L19.0082 6.44092Z" fill="black"/>
<path fill-rule="evenodd" clip-rule="evenodd" d="M4.38281 5.95678C4.36491 5.98894 4.34116 6.04117 4.31351 6.11784C4.25769 6.27262 4.19954 6.48871 4.14316 6.75385C4.03093 7.28172 3.93471 7.96097 3.87423 8.63728L3.87423 8.63728C3.83155 9.11451 3.80692 9.63328 3.80692 10.17C3.80692 11.195 3.89676 12.2445 4.03025 13.0642C4.09716 13.4751 4.17336 13.8177 4.2509 14.0664C4.28984 14.1913 4.32597 14.2823 4.35647 14.3426C4.36524 14.36 4.37236 14.3724 4.3776 14.381C4.39513 14.3881 4.42784 14.4005 4.48143 14.416C4.57479 14.4432 4.70228 14.4721 4.86406 14.5015C5.18676 14.5602 5.62129 14.6162 6.14207 14.6648C7.18227 14.7618 8.54447 14.8268 10 14.8268C11.4555 14.8268 12.8177 14.7618 13.8579 14.6648C14.3787 14.6162 14.8132 14.5602 15.1359 14.5015C15.2977 14.4721 15.4252 14.4432 15.5186 14.416C15.5625 14.4033 15.5924 14.3927 15.6114 14.3853C15.6217 14.365 15.6349 14.3357 15.6503 14.2958C15.6934 14.1845 15.7398 14.0273 15.7871 13.8318C15.8616 13.5243 15.9315 13.15 15.9919 12.7679H11.401C10.0231 12.7679 8.90217 11.6071 8.90217 10.1699C8.90217 8.73272 10.0231 7.5719 11.401 7.5719H15.9919C15.9315 7.18987 15.8615 6.81552 15.7871 6.50803C15.7398 6.31256 15.6934 6.15535 15.6503 6.04403C15.6349 6.00411 15.6217 5.97486 15.6114 5.95452C15.5924 5.94718 15.5625 5.93659 15.5186 5.92382C15.4252 5.8967 15.2977 5.86774 15.1359 5.83834C14.8132 5.77969 14.3787 5.72363 13.8579 5.67507C12.8177 5.57808 11.4555 5.513 10 5.513C8.54447 5.513 7.18227 5.57808 6.14207 5.67507C5.62129 5.72363 5.18676 5.77969 4.86406 5.83834C4.70229 5.86774 4.57479 5.8967 4.48143 5.92383C4.43275 5.93797 4.40131 5.94943 4.38281 5.95678ZM15.5957 5.92665C15.5945 5.92502 15.5938 5.92409 15.5939 5.92403C15.5939 5.92397 15.5945 5.92479 15.5957 5.92665ZM16.8543 7.88366C16.8482 7.83839 16.842 7.79362 16.8356 7.74937C16.7642 7.25344 16.6726 6.72775 16.5694 6.30133C16.5181 6.08928 16.4612 5.89047 16.3986 5.72835C16.3673 5.64742 16.331 5.56628 16.2884 5.49368C16.2493 5.42709 16.1867 5.33562 16.0914 5.26751C15.9867 5.19272 15.8509 5.1453 15.7348 5.11157C15.6062 5.07422 15.4503 5.03973 15.2742 5.00773C14.9212 4.94358 14.4625 4.88501 13.9297 4.83533C12.8626 4.73584 11.4763 4.66992 10 4.66992C8.52373 4.66992 7.13738 4.73584 6.07034 4.83533C5.53751 4.88501 5.07876 4.94358 4.72577 5.00773C4.5497 5.03973 4.39376 5.07422 4.26523 5.11157C4.14912 5.14531 4.0132 5.19274 3.90858 5.26753C3.80235 5.34347 3.73217 5.44924 3.68717 5.52953C3.63813 5.61703 3.5957 5.71719 3.55842 5.82056C3.48367 6.02782 3.41585 6.28692 3.35545 6.57102C3.23413 7.14164 3.13357 7.85708 3.07081 8.55884C3.02582 9.06191 3 9.60686 3 10.17C3 11.2407 3.0934 12.3375 3.23476 13.2056C3.30528 13.6386 3.38941 14.0252 3.48366 14.3276C3.53061 14.4782 3.58324 14.6182 3.64292 14.7363C3.69709 14.8435 3.78038 14.9807 3.90859 15.0723C4.01321 15.1471 4.14912 15.1946 4.26523 15.2283C4.39376 15.2656 4.54971 15.3001 4.72578 15.3321C5.07876 15.3963 5.53751 15.4548 6.07035 15.5045C7.13738 15.604 8.52373 15.6699 10 15.6699C11.4763 15.6699 12.8626 15.604 13.9297 15.5045C14.4625 15.4548 14.9212 15.3963 15.2742 15.3321C15.4503 15.3001 15.6062 15.2656 15.7348 15.2283C15.8509 15.1946 15.9868 15.1471 16.0914 15.0723C16.1867 15.0042 16.2493 14.9128 16.2884 14.8462C16.331 14.7736 16.3673 14.6924 16.3985 14.6115C16.4612 14.4494 16.5181 14.2506 16.5694 14.0386C16.6726 13.6122 16.7642 13.0865 16.8356 12.5906C16.842 12.5463 16.8482 12.5014 16.8543 12.456C16.863 12.4223 16.8677 12.3868 16.8681 12.3503C16.9502 11.6999 17 10.952 17 10.17C17 9.6069 16.9742 9.06197 16.9292 8.55888M16.8681 7.98975C16.8678 7.95308 16.863 7.91752 16.8543 7.88366ZM16.1043 8.41498C16.1119 8.48793 16.119 8.56205 16.1257 8.63724L16.1257 8.63732C16.1685 9.11451 16.1931 9.63327 16.1931 10.17C16.1931 10.7919 16.16 11.3891 16.1043 11.9249H11.401C10.4643 11.9249 9.70909 11.1369 9.70909 10.1699C9.70909 9.20298 10.4643 8.41498 11.401 8.41498H16.1043ZM16.9292 8.5588C16.9116 8.36252 16.8911 8.17236 16.8681 7.98975ZM15.5939 14.4158C15.5938 14.4158 15.5944 14.4149 15.5957 14.4132C15.5945 14.415 15.5939 14.4159 15.5939 14.4158ZM4.39639 5.93463C4.39702 5.93376 4.39735 5.93336 4.39735 5.93338C4.39735 5.9334 4.39704 5.93384 4.39639 5.93463ZM11.3887 9.74838C11.6116 9.74838 11.7922 9.93711 11.7922 10.1699V10.1772C11.7922 10.41 11.6116 10.5987 11.3887 10.5987C11.1659 10.5987 10.9853 10.41 10.9853 10.1772V10.1699C10.9853 9.93711 11.1659 9.74838 11.3887 9.74838Z" fill="black"/>
</svg>
