<svg width="60" height="46" viewBox="0 0 60 46" fill="none" xmlns="http://www.w3.org/2000/svg">
<path d="M10.7365 45.7391V42.6933C10.7365 41.5252 10.0256 40.764 8.85876 40.764C8.24591 40.764 7.59016 40.9675 7.13298 41.622C6.77753 41.0631 6.275 40.764 5.50894 40.764C5.22412 40.7517 4.94068 40.8102 4.68401 40.9343C4.42733 41.0583 4.20541 41.2441 4.03811 41.4749V40.8621H3.07349V45.7354H4.03811V42.947C4.03811 42.089 4.54554 41.6784 5.25645 41.6784C5.96735 41.6784 6.37305 42.1356 6.37305 42.947V45.7391H7.33767V42.947C7.33767 42.089 7.84511 41.6784 8.55601 41.6784C9.26691 41.6784 9.67262 42.1356 9.67262 42.947V45.7391H10.7365ZM26.5749 40.916H24.7977V39.4452H23.8355V40.916H22.8206V41.774H23.8355V44.0636C23.8355 45.1802 24.2412 45.8409 25.4595 45.8409C25.9211 45.8312 26.3734 45.7092 26.7772 45.4854L26.472 44.6274C26.1981 44.7986 25.8805 44.8867 25.5576 44.8811C25.0502 44.8811 24.7964 44.5759 24.7964 44.0685V41.7348H26.5737V40.9221L26.5749 40.916ZM35.6107 40.764C35.348 40.7582 35.0882 40.8206 34.8569 40.9452C34.6255 41.0698 34.4304 41.2523 34.2907 41.4749V40.8621H33.326V45.7354H34.2907V42.9985C34.2907 42.1858 34.6964 41.6784 35.357 41.6784C35.5799 41.6874 35.8012 41.7216 36.0164 41.7801L36.3216 40.8658C36.0889 40.8071 35.8506 40.773 35.6107 40.764ZM21.9553 41.2715C21.4479 40.916 20.737 40.764 19.9758 40.764C18.7575 40.764 17.9963 41.3229 17.9963 42.2876C17.9963 43.1002 18.5552 43.5562 19.6203 43.7094L20.1278 43.7596C20.6867 43.8614 21.0421 44.0648 21.0421 44.3185C21.0421 44.674 20.6364 44.9314 19.8741 44.9314C19.2919 44.9434 18.7218 44.7652 18.25 44.424L17.7426 45.1851C18.4535 45.6925 19.3164 45.798 19.8263 45.798C21.2481 45.798 22.0092 45.1385 22.0092 44.2242C22.0092 43.3662 21.3964 42.9556 20.3337 42.8024L19.8263 42.7521C19.3691 42.7018 18.9683 42.5486 18.9683 42.2447C18.9683 41.8892 19.374 41.6318 19.9329 41.6318C20.5457 41.6318 21.1512 41.8855 21.4564 42.0375L21.9553 41.2715ZM36.6771 43.3024C36.6771 44.7733 37.6417 45.8409 39.2155 45.8409C39.9264 45.8409 40.4338 45.6889 40.9413 45.2819L40.4338 44.5208C40.0746 44.8117 39.6275 44.9728 39.1652 44.978C38.3073 44.978 37.6417 44.3185 37.6417 43.3539C37.6417 42.3893 38.2987 41.7348 39.1652 41.7348C39.6275 41.7399 40.0746 41.901 40.4338 42.192L40.9413 41.4308C40.4338 41.0251 39.9264 40.8719 39.2155 40.8719C37.692 40.7702 36.6771 41.8365 36.6771 43.3086V43.3024ZM29.8745 40.764C28.4527 40.764 27.4881 41.7789 27.4881 43.3024C27.4881 44.826 28.5029 45.8409 29.975 45.8409C30.6911 45.856 31.3905 45.623 31.9545 45.1814L31.4471 44.4705C31.0392 44.7866 30.5411 44.9644 30.0253 44.978C29.3658 44.978 28.6549 44.5723 28.5544 43.7094H32.1592V43.3037C32.1592 41.7801 31.2448 40.7653 29.8745 40.7653V40.764ZM29.8242 41.6784C30.5351 41.6784 31.0426 42.1356 31.0928 42.8967H28.4539C28.6059 42.1858 29.0668 41.6784 29.8242 41.6784ZM16.6762 43.3024V40.8658H15.7116V41.4786C15.3562 41.0214 14.8536 40.7677 14.1378 40.7677C12.7675 40.7677 11.7514 41.8341 11.7514 43.3061C11.7514 44.7782 12.7663 45.8445 14.1378 45.8445C14.8487 45.8445 15.3562 45.5908 15.7116 45.1336V45.7465H16.6762V43.3024ZM12.7675 43.3024C12.7675 42.3881 13.3264 41.6784 14.291 41.6784C15.2054 41.6784 15.7619 42.3893 15.7619 43.3024C15.7619 44.2671 15.149 44.9265 14.291 44.9265C13.3264 44.9767 12.7675 44.2156 12.7675 43.3024ZM50.2835 40.764C50.0208 40.7582 49.761 40.8206 49.5296 40.9452C49.2982 41.0698 49.1032 41.2523 48.9634 41.4749V40.8621H47.9988V45.7354H48.9622V42.9985C48.9622 42.1858 49.3679 41.6784 50.0286 41.6784C50.2515 41.6874 50.4727 41.7216 50.688 41.7801L50.9932 40.8658C50.7604 40.8071 50.5222 40.773 50.2823 40.764H50.2835ZM46.5268 43.3024V40.8658H45.5621V41.4786C45.2067 41.0214 44.7042 40.7677 43.9883 40.7677C42.618 40.7677 41.6019 41.8341 41.6019 43.3061C41.6019 44.7782 42.6168 45.8445 43.9883 45.8445C44.6992 45.8445 45.2067 45.5908 45.5621 45.1336V45.7465H46.5268V43.3024ZM42.618 43.3024C42.618 42.3881 43.1769 41.6784 44.1416 41.6784C45.0559 41.6784 45.6124 42.3893 45.6124 43.3024C45.6124 44.2671 44.9995 44.9265 44.1416 44.9265C43.1769 44.9767 42.618 44.2156 42.618 43.3024ZM56.325 43.3024V38.9365H55.3603V41.4749C55.0049 41.0177 54.5023 40.764 53.7865 40.764C52.4162 40.764 51.4001 41.8304 51.4001 43.3024C51.4001 44.7745 52.415 45.8409 53.7865 45.8409C54.4974 45.8409 55.0049 45.5871 55.3603 45.13V45.7428H56.325V43.3024ZM52.4162 43.3024C52.4162 42.3881 52.9751 41.6784 53.9397 41.6784C54.8541 41.6784 55.4106 42.3893 55.4106 43.3024C55.4106 44.2671 54.7977 44.9265 53.9397 44.9265C52.9739 44.978 52.415 44.2168 52.415 43.3024H52.4162Z" fill="black"/>
<path d="M38.4543 3.90869H20.8386V32.6414H38.4543V3.90869Z" fill="#FF5F00"/>
<path d="M22.6159 18.2751C22.6165 15.511 23.2425 12.7828 24.4468 10.2949C25.6512 7.807 27.4028 5.62378 29.5705 3.90875C26.8747 1.78917 23.6369 0.470882 20.2272 0.10457C16.8175 -0.261742 13.3736 0.338707 10.289 1.83728C7.20451 3.33585 4.60385 5.67207 2.78437 8.57888C0.964889 11.4857 0 14.8458 0 18.2751C0 21.7044 0.964889 25.0645 2.78437 27.9713C4.60385 30.8781 7.20451 33.2143 10.289 34.7129C13.3736 36.2115 16.8175 36.8119 20.2272 36.4456C23.6369 36.0793 26.8747 34.761 29.5705 32.6414C27.4028 30.9264 25.6512 28.7432 24.4468 26.2553C23.2425 23.7673 22.6165 21.0392 22.6159 18.2751Z" fill="#EB001B"/>
<path d="M59.1671 18.2748C59.1696 21.7016 58.2076 25.0599 56.3911 27.9657C54.5746 30.8714 51.977 33.2072 48.8953 34.706C45.8136 36.2048 42.3723 36.806 38.9651 36.4408C35.5578 36.0757 32.322 34.7589 29.6279 32.6412C31.7961 30.9266 33.5481 28.7435 34.7526 26.2554C35.957 23.7674 36.5827 21.039 36.5827 18.2748C36.5827 15.5106 35.957 12.7822 34.7526 10.2942C33.5481 7.80619 31.7961 5.62307 29.6279 3.90847C32.322 1.79073 35.5578 0.473988 38.9651 0.108836C42.3723 -0.256315 45.8136 0.344872 48.8953 1.84364C51.977 3.3424 54.5746 5.67823 56.3911 8.58396C58.2076 11.4897 59.1696 14.848 59.1671 18.2748Z" fill="#F79E1B"/>
</svg>
