<svg width="93" height="29" viewBox="0 0 93 29" fill="none" xmlns="http://www.w3.org/2000/svg">
<path d="M32.8516 28.1652L37.5551 0.563965H45.0782L40.3713 28.1652H32.8516Z" fill="#0E4595"/>
<path d="M67.551 1.15924C66.0607 0.600066 63.7251 0 60.8084 0C53.3745 0 48.1383 3.7435 48.0936 9.10871C48.0518 13.0747 51.8319 15.2872 54.6856 16.6074C57.614 17.9605 58.5985 18.8233 58.5844 20.0312C58.5656 21.8814 56.2458 22.7264 54.0833 22.7264C51.0724 22.7264 49.4727 22.308 47.0019 21.2778L46.0323 20.839L44.9766 27.0178C46.7338 27.7884 49.9829 28.4558 53.3569 28.4905C61.2652 28.4905 66.399 24.7897 66.4574 19.0603C66.4855 15.9204 64.4813 13.5311 60.1408 11.5611C57.5113 10.2843 55.9008 9.43229 55.9179 8.13938C55.9179 6.99212 57.281 5.76534 60.2265 5.76534C62.6864 5.72714 64.4687 6.26361 65.8572 6.82279L66.5313 7.1413L67.551 1.15924Z" fill="#0E4595"/>
<path d="M86.9108 0.563965H81.0977C79.2968 0.563965 77.949 1.05547 77.1582 2.85284L65.9854 28.1473H73.8853C73.8853 28.1473 75.1768 24.7464 75.469 23.9995C76.3323 23.9995 84.0068 24.0114 85.1039 24.0114C85.3289 24.9777 86.0192 28.1473 86.0192 28.1473H93L86.9108 0.563965ZM77.6875 18.3866C78.3098 16.7963 80.685 10.6709 80.685 10.6709C80.6407 10.7444 81.3027 9.07289 81.6824 8.03659L82.1909 10.4163C82.1909 10.4163 83.6315 17.0047 83.9325 18.3862H77.6875V18.3866Z" fill="#0E4595"/>
<path d="M0.0961065 0.563965L0 1.13813C2.97396 1.85804 5.63013 2.9 7.95564 4.19619L14.631 28.1209L22.5908 28.1121L34.4348 0.563965H26.4651L19.0999 19.386L18.3153 15.5607C18.2786 15.4425 18.2386 15.3241 18.1977 15.2055L15.6373 2.8942C15.182 1.14646 13.8613 0.624874 12.2273 0.563965H0.0961065Z" fill="#0E4595"/>
</svg>
